<svg width="1440" height="900" fill="none" xmlns="http://www.w3.org/2000/svg"><g clip-path="url(#a)"><path fill="#fff" d="M0 0h1440v900H0z"/><g opacity=".3"><g filter="url(#b)"><path fill-rule="evenodd" clip-rule="evenodd" d="M413.809 153.357c100.367 97.734 34.903 332.219 135.777 429.202 70.277 67.567 185.368-96.46 264.356-44.503 65.761 43.257 35.748 171.195 58.455 256.846 24.764 93.41 76.265 175.428 82.064 273.188 6.568 110.74 39.194 282.2-46.636 324.09-116.076 56.65-230.364-131.88-355.658-127.76-61.849 2.03-90.478 97.06-138.358 144-106.328 104.24-181.599 319.41-318.38 303.77-110.1-12.58-92.218-235.35-138.023-355.94-36.077-94.97-85.641-180.75-104.533-282.61-18.834-101.548-44.759-215.599-5.027-308.094 40.546-94.394 175.587-85.464 214.937-180.582 55.013-132.979-45.917-330.657 40.541-436.962 73.144-89.934 229.151-73.847 310.485 5.355Z" fill="#EAE0FA"/></g><g filter="url(#c)"><path fill-rule="evenodd" clip-rule="evenodd" d="M1424.97 96.219c66.49-28.616 150.04-32.157 216.21-2.897 66.18 29.259 109.56 94.718 136.88 159.014 25.13 59.115-5.21 126.679 10.86 188.576 16.44 63.306 76.77 111.131 83.8 175.991 7.8 71.894-4.01 147.697-41.9 210.372-39.39 65.163-102.65 117.512-174.86 148.197-71.61 30.428-152.82 30.488-230.99 24.27-74.72-5.947-153.59-16.259-213.08-59.615-57.61-41.985-75.95-114.685-109.81-175.701-28.79-51.875-49.43-105.073-75.52-158.223-32.247-65.706-102.367-121.52-97.299-193.857 4.962-70.832 56.028-143.518 123.129-174.769 70.92-33.03 160.46 36.356 233.81 8.526 65.87-24.992 74.16-122.078 138.77-149.884Z" fill="#EDD8B0"/></g></g></g><defs><filter id="b" x="-373" y="-113" width="1539" height="2026" filterUnits="userSpaceOnUse" color-interpolation-filters="sRGB"><feFlood flood-opacity="0" result="BackgroundImageFix"/><feBlend in="SourceGraphic" in2="BackgroundImageFix" result="shape"/><feGaussianBlur stdDeviation="100" result="effect1_foregroundBlur_6508_599"/></filter><filter id="c" x="729" y="-127" width="1346" height="1330" filterUnits="userSpaceOnUse" color-interpolation-filters="sRGB"><feFlood flood-opacity="0" result="BackgroundImageFix"/><feBlend in="SourceGraphic" in2="BackgroundImageFix" result="shape"/><feGaussianBlur stdDeviation="100" result="effect1_foregroundBlur_6508_599"/></filter><clipPath id="a"><path fill="#fff" d="M0 0h1440v900H0z"/></clipPath></defs></svg>